<?xml version="1.0" encoding="utf-8"?>
<svg viewBox="224.182 270.215 148.597 42.348" width="148.597" height="42.348" xmlns="http://www.w3.org/2000/svg">
  <path d="M 241.318 294.599 L 235.606 294.599 L 232.626 312.563 L 224.182 312.563 L 231.19 270.551 L 245.83 270.551 C 249.445 270.551 252.022 271.383 253.557 273.047 C 254.677 274.327 255.237 275.958 255.237 277.943 C 255.237 278.615 255.174 279.319 255.045 280.055 L 254.086 285.479 C 253.605 288.135 252.198 290.319 249.862 292.031 C 247.526 293.743 244.678 294.599 241.318 294.599 Z M 242.806 278.039 L 238.486 278.039 L 236.902 287.111 L 241.174 287.111 C 243.798 287.111 245.318 285.944 245.734 283.607 L 246.07 281.639 C 246.134 281.351 246.166 280.967 246.166 280.487 C 246.166 280.007 245.926 279.479 245.446 278.903 C 244.965 278.327 244.086 278.039 242.806 278.039 Z M 266.976 270.551 L 260.928 305.111 L 252.24 305.111 L 258.336 270.551 L 266.976 270.551 Z M 282.89 270.215 C 290.602 270.215 294.458 273.367 294.458 279.671 C 294.458 280.727 294.346 281.863 294.122 283.079 L 292.442 292.679 C 291.674 297.127 290.01 300.423 287.45 302.567 C 284.891 304.711 281.29 305.111 276.65 305.111 C 272.01 305.111 268.778 304.711 266.954 302.567 C 265.706 301.095 265.082 299.063 265.082 296.471 C 265.082 295.319 265.21 294.054 265.466 292.679 L 267.146 283.079 C 268.651 274.503 273.899 270.215 282.89 270.215 Z M 277.946 298.343 C 279.546 298.343 280.826 297.927 281.786 297.095 C 282.746 296.263 283.419 294.727 283.802 292.487 L 285.435 283.271 C 285.53 282.631 285.578 282.055 285.578 281.543 C 285.578 278.951 284.266 277.655 281.642 277.655 C 278.347 277.719 276.378 279.591 275.739 283.271 L 274.106 292.487 C 273.978 293.287 273.914 294.119 273.914 294.983 C 273.914 297.223 275.258 298.343 277.946 298.343 Z M 316.445 302.591 C 316.445 302.591 313.541 305.111 308.901 305.111 C 304.261 305.111 297.813 304.711 296.02 302.567 C 294.74 301.095 294.101 299.063 294.101 296.471 C 294.101 295.319 294.229 294.054 294.484 292.679 L 298.373 270.551 L 307.012 270.551 L 303.124 292.487 C 302.996 293.287 302.932 294.119 302.932 294.983 C 302.932 297.223 304.276 298.343 306.965 298.343 C 308.565 298.343 309.844 297.927 310.804 297.095 C 311.764 296.263 312.436 294.727 312.82 292.487 L 316.708 270.551 L 325.348 270.551 L 321.461 292.679 C 320.66 297.159 318.988 300.463 316.445 302.591 Z" style="fill: rgb(248, 229, 89);" transform="matrix(1, 0, 0, 1, -2.842170943040401e-14, 0)"/>
  <path d="M 354.731 270.551 L 353.915 296.711 L 355.019 296.711 L 363.371 270.551 L 372.779 270.551 L 360.923 305.111 L 346.523 305.111 L 347.819 282.983 L 341.387 305.111 L 326.987 305.111 L 327.323 270.551 L 336.731 270.551 L 335.866 296.711 L 336.971 296.711 L 345.37 270.551 L 354.731 270.551 Z" style="fill: rgb(248, 229, 89);" transform="matrix(1, 0, 0, 1, -2.842170943040401e-14, 0)"/>
  <path d="M 235.902 306.94 L 360.308 306.94 L 358.131 312.562 L 234.92 312.562 L 235.902 306.94 Z" style="stroke: rgb(0, 0, 0); stroke-width: 0px; fill: rgb(248, 229, 89);" transform="matrix(1, 0, 0, 1, -2.842170943040401e-14, 0)"/>
</svg>